<?xml version="1.0" encoding="utf-8"?>
<!-- Generator: Adobe Illustrator 24.2.1, SVG Export Plug-In . SVG Version: 6.00 Build 0)  -->
<svg version="1.1" id="Layer_1" xmlns="http://www.w3.org/2000/svg" xmlns:xlink="http://www.w3.org/1999/xlink" x="0px" y="0px"
	 viewBox="0 0 869 190" style="enable-background:new 0 0 869 190;" xml:space="preserve">
<style type="text/css">
	.st0{fill:#5F88FF;}
	.st1{font-family:'Apple-Chancery';}
	.st2{font-size:108px;}
	.st3{fill:#F7931A;}
	.st4{fill:#FFFFFF;stroke:#FF921E;stroke-width:9;stroke-miterlimit:10;}
	.st5{fill:#5F88FF;stroke:#5F88FF;stroke-width:0.5;stroke-miterlimit:10;}
</style>
<text transform="matrix(1 0 0 1 193.647 127.4116)"><tspan x="0" y="0" class="st0 st1 st2">Quantum</tspan><tspan x="435.69" y="0" class="st3 st1 st2">290</tspan></text>
<g transform="translate(0.00630876,-0.00301984)">
	<path class="st4" d="M166.74,111.69c-7.28,29.2-36.85,46.96-66.05,39.68c-29.19-7.28-46.96-36.85-39.67-66.05
		c7.28-29.2,36.85-46.97,66.04-39.69C156.25,52.91,174.02,82.49,166.74,111.69z"/>
</g>
<g>
	<path class="st5" d="M134.52,141.3l-5.03,3.44l-8.09-11.05c-2.86,0.81-5.86,1.22-9.02,1.23c-3.16,0.01-6.5-0.5-10.04-1.52
		c-5.43-1.57-9.93-3.93-13.49-7.08c-3.56-3.15-6.22-6.81-8-10.98c-1.78-4.16-2.71-8.69-2.79-13.57c-0.08-4.88,0.61-9.87,2.09-14.98
		c1.42-4.91,3.44-9.41,6.08-13.51c2.63-4.09,5.79-7.47,9.47-10.14c3.67-2.66,7.86-4.43,12.54-5.32c4.69-0.88,9.78-0.53,15.28,1.06
		c4.97,1.44,9.27,3.56,12.89,6.38c3.62,2.82,6.43,6.22,8.44,10.2c2.01,3.98,3.14,8.53,3.4,13.64c0.26,5.11-0.47,10.68-2.21,16.7
		c-1.66,5.76-4.08,10.84-7.27,15.24c-3.18,4.4-7.04,7.82-11.58,10.27L134.52,141.3z M123.39,126.07c3.84-2.01,7.11-4.98,9.8-8.92
		s4.75-8.36,6.17-13.27c1.53-5.3,2.19-10.11,1.98-14.42c-0.21-4.32-1.11-8.14-2.7-11.47c-1.59-3.33-3.8-6.11-6.63-8.35
		c-2.83-2.24-6.14-3.9-9.94-4.99c-4.52-1.3-8.68-1.55-12.5-0.73c-3.82,0.81-7.21,2.39-10.19,4.72c-2.98,2.33-5.52,5.25-7.63,8.75
		c-2.11,3.5-3.75,7.29-4.92,11.34c-1.21,4.19-1.85,8.33-1.93,12.42c-0.08,4.09,0.53,7.88,1.82,11.37c1.3,3.49,3.35,6.57,6.17,9.22
		c2.81,2.66,6.54,4.65,11.19,6c2.49,0.72,4.82,1.09,7.02,1.12c2.19,0.03,4.28-0.2,6.26-0.69l-6.27-8.51l4.87-3.6L123.39,126.07z"/>
</g>
</svg>
